<svg width="23" height="24" viewBox="0 0 23 24" fill="none" xmlns="http://www.w3.org/2000/svg">
<path d="M17.8481 12.9767C17.7367 12.8652 17.6045 12.7767 17.4589 12.7163C17.3133 12.656 17.1573 12.6249 16.9997 12.6249C16.8421 12.6249 16.686 12.656 16.5405 12.7163C16.3949 12.7767 16.2626 12.8652 16.1513 12.9767L14.2385 14.8895C13.3517 14.6255 11.6969 14.0255 10.6482 12.9767C9.59937 11.9279 8.99938 10.2731 8.73538 9.38635L10.6482 7.47357C10.7597 7.36223 10.8482 7.22998 10.9085 7.08441C10.9689 6.93883 11 6.78278 11 6.62518C11 6.46758 10.9689 6.31153 10.9085 6.16595C10.8482 6.02038 10.7597 5.88813 10.6482 5.77679L5.84821 0.976838C5.73686 0.865304 5.60462 0.776819 5.45904 0.716447C5.31347 0.656075 5.15741 0.625 4.99982 0.625C4.84222 0.625 4.68616 0.656075 4.54059 0.716447C4.39501 0.776819 4.26277 0.865304 4.15142 0.976838L0.897057 4.23121C0.441061 4.6872 0.184263 5.31359 0.193863 5.95319C0.221463 7.66197 0.673859 13.5971 5.35141 18.2747C10.029 22.9522 15.9641 23.4034 17.6741 23.4322H17.7077C18.3413 23.4322 18.9401 23.1826 19.3937 22.729L22.648 19.4747C22.7596 19.3633 22.8481 19.2311 22.9084 19.0855C22.9688 18.9399 22.9999 18.7839 22.9999 18.6263C22.9999 18.4687 22.9688 18.3126 22.9084 18.167C22.8481 18.0215 22.7596 17.8892 22.648 17.7779L17.8481 12.9767ZM17.6957 21.031C16.1981 21.0058 11.0742 20.6038 7.04819 16.5767C3.00904 12.5375 2.61784 7.39557 2.59384 5.92799L4.99982 3.52201L8.10298 6.62518L6.5514 8.17677C6.41036 8.3177 6.30665 8.49157 6.24967 8.68264C6.19268 8.87372 6.1842 9.07598 6.225 9.27115C6.2538 9.40915 6.9582 12.6815 8.95018 14.6735C10.9422 16.6655 14.2145 17.3699 14.3525 17.3987C14.5476 17.4406 14.75 17.4328 14.9413 17.376C15.1325 17.3192 15.3064 17.2151 15.4469 17.0735L16.9997 15.5219L20.1029 18.6251L17.6957 21.031Z" fill="#23A6F0"/>
</svg>
