<svg width="24" height="20" viewBox="0 0 24 20" fill="none" xmlns="http://www.w3.org/2000/svg">
<path fill-rule="evenodd" clip-rule="evenodd" d="M-0.91875 2.59167C-0.75492 1.8554 -0.352185 1.19802 0.223498 0.727181C0.79918 0.256339 1.51369 -5.0824e-05 2.25 7.5569e-09H21.75C22.4863 -5.0824e-05 23.2008 0.256339 23.7765 0.727181C24.3522 1.19802 24.7549 1.8554 24.9187 2.59167L12 10.69L-0.91875 2.59167ZM-1 4.495V16.335L8.42988 10.405L-1 4.495ZM9.98663 11.3833L-0.689625 18.095C-0.425844 18.6655 -0.00951922 19.1474 0.510895 19.4846C1.03131 19.8219 1.63441 20.0006 2.25 20H21.75C22.3655 20.0001 22.9684 19.821 23.4885 19.4835C24.0086 19.1459 24.4246 18.6639 24.688 18.0933L14.0118 11.3817L12 12.6433L9.98663 11.3817V11.3833ZM15.5701 10.4067L25 16.335V4.495L15.5701 10.405V10.4067Z" fill="#23A6F0"/>
</svg>
